# xmcd CD database file
#
# Track frame offsets:
#	182
#	16872
#	31620
#	44075
#	59420
#	77622
#	94640
#	110527
#	124792
#	141307
#
# Disc length: 2067 seconds
#
# Revision: 2
# Processed by: cddbd v1.5.2PL0 Copyright (c) Steve Scherf et al.
# Submitted via: CDex 1.70beta2
#
DISCID=7d08110a
DTITLE=Volume 2 - Unknown CD for MusicBrainz and FreeDB
DYEAR=1900
DGENRE=
TTITLE0=I Fell In Love
TTITLE1=Oh Me, Oh My, Sweet Baby
TTITLE2=Holding A Good Hand
TTITLE3=You Baby You
TTITLE4=Feed Jake
TTITLE5=Where've You Been
TTITLE6=Only Here For A Little While
TTITLE7=Tender Moment
TTITLE8=Bop
TTITLE9=If I Had A Cheatin' Heart
EXTD=
EXTT0=
EXTT1=
EXTT2=
EXTT3=
EXTT4=
EXTT5=
EXTT6=
EXTT7=
EXTT8=
EXTT9=
PLAYORDER=
